<?xml version="1.0" standalone="no"?>
<!DOCTYPE svg PUBLIC "-//W3C//DTD SVG 20010904//EN"
 "http://www.w3.org/TR/2001/REC-SVG-20010904/DTD/svg10.dtd">
<svg version="1.0" xmlns="http://www.w3.org/2000/svg"
 width="120.000000pt" height="120.000000pt" viewBox="0 0 120.000000 120.000000"
 preserveAspectRatio="xMidYMid meet">
<metadata>
Created by potrace 1.14, written by Peter Selinger 2001-2017
</metadata>
<g transform="translate(0.000000,120.000000) scale(0.100000,-0.100000)"
fill="#000000" stroke="none">
<path d="M524 1126 c-17 -8 -42 -29 -55 -47 -23 -32 -24 -40 -22 -170 l3 -137
-35 -48 c-19 -27 -51 -83 -70 -124 -20 -41 -45 -93 -56 -115 -10 -22 -19 -52
-19 -67 0 -38 -44 -86 -91 -98 l-39 -11 0 -64 c0 -35 -3 -70 -6 -78 -3 -8 2
-21 10 -30 8 -8 13 -17 10 -20 -3 -3 1 -4 8 -4 29 3 118 -16 125 -25 4 -7 1
-8 -7 -3 -9 6 -11 4 -5 -4 5 -8 11 -9 17 -3 11 11 50 4 43 -8 -3 -5 0 -12 6
-16 8 -4 9 -3 5 4 -4 7 -1 12 8 12 9 0 16 -4 16 -10 0 -5 6 -7 14 -4 8 3 24 0
36 -6 13 -7 20 -8 17 -3 -8 13 80 56 99 49 8 -3 13 -2 10 3 -3 5 28 9 68 10
41 1 77 -3 81 -8 3 -6 13 -7 21 -4 10 4 24 -4 37 -19 18 -19 31 -24 66 -23 25
1 47 7 49 14 2 6 8 9 13 5 5 -3 12 2 15 10 3 9 12 16 19 16 7 0 16 7 19 16 5
13 9 14 21 4 13 -11 14 -10 10 2 -4 11 9 24 42 43 46 27 63 42 63 57 0 3 -18
24 -41 45 -43 41 -65 102 -53 148 8 31 -12 117 -39 170 -11 22 -44 75 -73 118
-61 90 -84 151 -88 239 -4 73 -10 91 -44 137 -42 57 -136 78 -208 47z"/>
<path d="M675 91 c-3 -5 -2 -12 3 -15 5 -3 9 1 9 9 0 17 -3 19 -12 6z"/>
</g>
</svg>
